<?xml version="1.0" encoding="utf-8"?>
<!-- Generator: Adobe Illustrator 21.0.0, SVG Export Plug-In . SVG Version: 6.00 Build 0)  -->
<svg class="advantages__image" id="Layer_1" data-name="Layer 1" xmlns="http://www.w3.org/2000/svg" width="77.99" height="52.56" viewBox="0 0 77.99 52.56"><defs><style>.cls-1{fill:#98c93c;}</style></defs><path class="cls-1" d="M66,7V1a1,1,0,0,0-1-1H1A1,1,0,0,0,0,1V7A1,1,0,0,0,1,8H65A1,1,0,0,0,66,7ZM64,6H2V2H64Z"></path><path class="cls-1" d="M74.49,27.51A12,12,0,0,0,63,24.4V11a1,1,0,0,0-2,0V25.11a12,12,0,0,0-3.49,19.38L58,45H48V20a1,1,0,0,0-1-1H19a1,1,0,0,0-1,1V45H5V11a1,1,0,0,0-2,0V46a1,1,0,0,0,1,1H60l5.26,5.26a1,1,0,0,0,1.41,0l7.78-7.78A12,12,0,0,0,74.49,27.51ZM20,21H32V45H20ZM34,45V21H46V45Zm32,5.14-3.38-3.38L60.86,45l-1.93-1.93a10,10,0,1,1,14.14,0Z"></path><path class="cls-1" d="M66,31a5,5,0,0,0,0,10,5,5,0,0,0,0-10Zm0,8a3,3,0,1,1,3-3A3,3,0,0,1,66,39Z"></path></svg>